<svg width="2353" height="1588" viewBox="0 0 2353 1588" fill="none" xmlns="http://www.w3.org/2000/svg">
<path d="M1579.91 279.081H1579.94C1579.94 279.081 1579.93 279.113 1579.91 279.081Z" fill="#FFFFFF"/>
<path d="M2311.47 104.386L1607.3 568.183C1595.74 552.722 1584.69 536.881 1574.19 520.644L2277.42 88.4653C2286.53 97.1073 2298.35 102.879 2311.47 104.386Z" fill="#FFFFFF"/>
<path d="M2260.85 33.0615L1435.81 57.9092C1435.66 38.5797 1436.22 19.2661 1437.39 0L2280.56 1.06241C2270.43 9.52997 2263.69 20.8518 2260.85 33.0615Z" fill="#FFFFFF"/>
<path d="M2317.92 79.9023C2302.79 79.6169 2290.14 69.5161 2285.95 55.8158L2285.91 55.6572C2281.9 41.9093 2286.92 26.5282 2299.4 17.9813C2314.89 7.38895 2336.08 11.369 2346.65 26.8612C2348.67 29.7947 2350.14 32.9185 2351.13 36.1533L2351.17 36.3118C2352.13 39.5466 2352.62 42.9717 2352.54 46.5395C2352.2 65.2823 2336.68 80.2512 2317.91 79.9023H2317.92Z" fill="#FFFFFF"/>
<rect x="351" y="512" width="95" height="412" fill="#F97A99"/>
<path d="M1561 499.681C1561 499.681 1560.93 499.586 1560.9 499.523C1551.42 483.936 1542.4 468.015 1533.88 451.794L1630.5 404.128L1630.54 404.096C1636.22 401.305 1638.68 394.408 1635.73 388.699C1632.81 383.023 1625.88 381.009 1620.36 383.736L1523.59 431.497C1515.99 416.068 1508.86 400.37 1502.2 384.434L1665.9 319.151H1665.94C1672.45 316.551 1675.53 309.256 1673.02 302.961C1670.49 296.603 1663.18 293.447 1656.69 296.048L1492.92 361.33C1486.66 345.014 1480.86 328.475 1475.54 311.683L1577.65 281.348H1577.71C1583.5 279.525 1587.24 273.341 1585.34 267.109L1585.3 267.046V266.982C1585.15 266.475 1584.51 264.35 1584.37 263.842L1584.32 263.795V263.731C1582.48 257.468 1575.95 254.36 1570.13 256.025L1570.07 256.057L1468.08 286.756C1463.3 269.805 1459.05 252.79 1455.34 235.728L1628.05 200.383C1634.89 199.004 1639.28 192.344 1637.92 185.637C1636.55 178.992 1629.97 174.584 1623.11 175.996H1623.08L1450.41 211.325C1447.22 194.342 1444.58 177.312 1442.45 160.25L1549.56 147.041C1555.67 146.28 1560.36 140.793 1559.68 134.451C1559 128.06 1553.16 123.636 1546.88 124.429H1546.84L1439.91 137.622C1438.12 119.387 1436.93 101.135 1436.3 82.8841C1436.3 82.8207 1436.3 82.6938 1436.3 82.6938L2260.38 57.8145H2260.39C2260.39 57.8145 2260.43 57.9572 2260.46 58.0523C2260.77 59.6856 2261.17 61.3188 2261.66 62.9362L2261.71 63.0948C2262.19 64.7122 2262.76 66.2979 2263.39 67.836C2263.42 67.9153 2263.45 68.0104 2263.47 68.0738H2263.44L1560.98 499.697L1561 499.681Z" fill="#FFFFFF"/>
<path fill-rule="evenodd" clip-rule="evenodd" d="M56.4187 1581.97L1547.47 608.205C1510.19 556.242 1477.89 500.173 1451.42 441.486C1397.96 322.925 1369.29 196.339 1366.21 65.2668C1365.7 43.4478 1365.91 21.5177 1366.83 0H36.4707C16.3643 0 0 16.3643 0 36.4707V1551.45C0 1565.05 7.15144 1577.03 19.1075 1583.51C31.0794 1590 45.0335 1589.43 56.4187 1581.97ZM353.182 152.408C357.618 152.408 361.217 156.002 361.217 160.43V497.752C361.217 502.181 364.817 505.775 369.253 505.775H425.499C429.934 505.775 433.534 502.181 433.534 497.752V329.091V160.43C433.534 156.002 437.134 152.408 441.569 152.408H505.786C510.222 152.408 513.822 148.813 513.822 144.385V96.6178C513.822 92.1892 510.222 88.5951 505.786 88.5951H288.965C284.53 88.5951 280.93 92.1892 280.93 96.6178V144.385C280.93 148.813 284.53 152.408 288.965 152.408H353.182ZM865.429 433.255C862.942 421.193 850.378 399.011 827.722 366.726L785.699 304.18C782.121 298.831 785.939 291.652 792.358 291.652H852.095C856.524 291.652 860.118 288.07 860.118 283.621V243.786C860.118 239.353 856.524 235.755 852.095 235.755H744.462C743.354 235.755 742.247 235.996 741.253 236.446C717.136 247.529 705.086 265.759 705.086 291.122C705.086 295.378 705.792 300.887 707.22 307.633C707.926 310.107 709.161 313.127 710.926 316.676C712.708 319.873 714.12 322.539 715.178 324.659C716.237 326.796 718.179 330.169 721.019 334.778C723.843 339.035 727.742 344.721 732.7 351.82C738.011 358.904 741.894 364.413 744.381 368.316L792.663 439.343C796.273 444.676 792.47 451.887 786.02 451.887H654.189C654.093 451.887 654.013 451.887 653.917 451.904H580.668C578.903 451.904 577.171 451.341 575.855 450.169C570.608 445.511 565.65 438.636 560.964 429.545C557.723 422.59 555.316 416.181 553.744 410.287C552.492 405.596 556.231 401.324 561.077 401.324H677.712C681.467 401.324 684.724 398.722 685.398 395.028C687.741 382.178 688.912 367.24 688.912 350.23C688.912 330.345 684.66 310.653 676.172 291.138C667.924 272.2 652.521 254.259 629.96 237.329C628.597 236.318 626.928 235.771 625.227 235.771H544.454C542.769 235.771 541.1 236.301 539.752 237.329C497.264 269.165 476.019 313.721 476.019 370.983C476.019 396.184 480.977 421.209 490.894 446.041C500.874 469.861 517.706 489.987 541.421 506.418C542.737 507.334 544.293 507.8 545.898 507.8H670.267C670.395 507.8 670.54 507.8 670.668 507.784H836.932C838.553 507.784 840.125 507.302 841.425 506.354C858.834 493.617 867.547 475.097 867.547 450.827C867.547 444.804 866.841 438.941 865.429 433.255ZM548.513 343.259C549.107 335.132 550.615 326.812 553.006 318.283C556.022 308.597 559.681 300.727 563.981 294.655C565.361 292.712 567.656 291.668 570.03 291.668H602.619C604.833 291.668 606.983 292.551 608.347 294.302C612.984 300.181 616.835 308.163 619.884 318.283C622.612 326.988 624.072 335.485 624.28 343.773C624.393 347.998 620.863 351.29 616.627 351.29H556.247C551.819 351.29 548.192 347.692 548.513 343.259ZM930.207 235.755C929.101 235.755 928.01 235.98 927 236.446V236.462C902.921 247.546 890.881 265.761 890.881 291.141C890.881 295.398 891.587 300.891 892.997 307.638C893.703 310.111 894.937 313.131 896.717 316.681C898.48 319.878 899.891 322.528 900.949 324.665C902.023 326.801 903.963 330.174 906.785 334.784C909.622 339.041 913.502 344.711 918.456 351.811C923.762 358.911 927.658 364.421 930.127 368.324L978.366 439.355C981.989 444.688 978.173 451.9 971.729 451.9H897.839C893.398 451.9 889.823 455.498 889.823 459.932V499.768C889.823 504.202 893.398 507.8 897.839 507.8H1022.6C1024.22 507.8 1025.79 507.318 1027.09 506.37C1044.48 493.632 1053.18 475.111 1053.18 450.84C1053.18 444.8 1052.48 438.953 1051.07 433.267C1048.58 421.204 1036.03 399.021 1013.41 366.718L971.408 304.168C967.833 298.835 971.648 291.655 978.061 291.655H1037.75C1042.17 291.655 1045.76 288.057 1045.76 283.623V243.787C1045.76 239.354 1042.17 235.755 1037.75 235.755H930.207ZM277.547 632.802C276.952 632.464 276.583 631.854 276.583 631.179C276.583 630.505 276.936 629.927 277.482 629.589C303.105 613.528 315.925 585.677 315.925 546.037C315.925 523.31 309.194 503.972 295.716 488.007C282.607 472.444 267.635 461.442 250.815 454.969C249.932 454.632 249 454.471 248.052 454.471H106.025C101.591 454.471 97.9923 458.069 97.9923 462.502V819.067C97.9923 823.5 101.591 827.097 106.025 827.097H255.634C257.177 827.097 258.687 826.664 259.972 825.813C303.652 797.271 325.483 761.149 325.483 717.446C325.483 679.139 309.499 650.919 277.547 632.802ZM170.283 526.378C170.283 521.945 173.882 518.347 178.315 518.347H221.738C223.521 518.347 225.272 518.942 226.638 520.098C239.747 531.277 246.285 546.134 246.285 564.669C246.285 583.204 239.136 597.498 224.823 607.087C223.586 607.906 222.124 608.308 220.63 608.308H178.315C173.882 608.308 170.283 604.71 170.283 600.277V526.378ZM242.044 743.53C237.61 752.379 232.63 759.125 227.088 763.751C225.786 764.827 224.116 765.341 222.429 765.341H178.315C173.882 765.341 170.283 761.759 170.283 757.31V676.489C170.283 672.056 173.882 668.458 178.315 668.458H225.433C226.911 668.458 228.373 668.86 229.578 669.711C235.12 673.598 239.811 679.219 243.634 686.559C247.891 694.719 250.012 703.777 250.012 713.719C250.012 723.661 247.361 733.588 242.044 743.53ZM369.298 534.802H423.43C427.866 534.802 431.466 538.4 431.466 542.833V598.63C431.466 603.063 427.866 606.661 423.43 606.661H369.298C364.862 606.661 361.261 603.063 361.261 598.63V542.833C361.261 538.4 364.862 534.802 369.298 534.802ZM369.298 635.411H423.43C427.866 635.411 431.466 639.009 431.466 643.442V899.398C431.466 903.831 427.866 907.429 423.43 907.429H369.298C364.862 907.429 361.261 903.831 361.261 899.398V643.442C361.261 639.009 364.862 635.411 369.298 635.411ZM485.402 827.098C480.969 827.098 477.371 823.501 477.371 819.068V542.832C477.371 538.4 480.969 534.802 485.402 534.802H540.016C544.449 534.802 548.047 538.4 548.047 542.832V647.352C548.047 649.906 550.119 651.977 552.673 651.977C554.408 651.977 555.998 651.014 556.785 649.472L603.206 559.455C604.588 556.789 607.335 555.102 610.338 555.102H661.209C667.265 555.102 671.136 561.542 668.309 566.891L613.583 670.463C612.459 672.583 612.346 675.072 613.262 677.288L670.493 816C672.678 821.284 668.79 827.098 663.072 827.098H610.306C607.045 827.098 604.106 825.123 602.869 822.119L557.235 710.822C556.496 709.039 554.761 707.867 552.818 707.867C550.183 707.867 548.047 710.003 548.047 712.637V819.068C548.047 823.501 544.449 827.098 540.016 827.098H485.402ZM1018.1 686.008C1040.74 718.309 1053.31 740.491 1055.79 752.554C1057.21 758.24 1057.91 764.086 1057.91 770.126C1057.91 794.395 1049.2 812.915 1031.79 825.652C1030.49 826.6 1028.92 827.082 1027.3 827.082H861.225C861.016 827.098 860.824 827.098 860.615 827.098H736.246C734.657 827.098 733.101 826.632 731.785 825.717C708.07 809.285 691.222 789.159 681.242 765.339C671.342 740.507 666.384 715.482 666.384 690.281C666.384 633.019 687.628 588.463 730.117 556.628C731.464 555.6 733.133 555.07 734.818 555.07H815.591C817.292 555.07 818.961 555.616 820.325 556.628C842.885 573.573 858.289 591.499 866.52 610.436C875.024 629.951 879.26 649.643 879.26 669.528C879.26 686.538 878.089 701.476 875.762 714.326C875.088 718.036 871.815 720.622 868.06 720.622H751.441C746.595 720.622 742.857 724.895 744.108 729.585C745.681 735.479 748.088 741.888 751.329 748.843C756.014 757.934 760.972 764.809 766.219 769.467C767.535 770.64 769.268 771.202 771.033 771.202H842.965C843.061 771.186 843.142 771.186 843.238 771.186H976.384C982.834 771.186 986.653 763.974 983.027 758.641L934.746 687.614C932.275 683.711 928.376 678.202 923.065 671.102C918.106 664.003 914.223 658.333 911.383 654.077C908.559 649.451 906.602 646.078 905.543 643.957C904.484 641.821 903.072 639.171 901.307 635.975C899.526 632.425 898.29 629.405 897.584 626.916C896.172 620.169 895.466 614.676 895.466 610.42C895.466 585.042 907.516 566.811 931.617 555.744C932.628 555.278 933.719 555.053 934.826 555.053H1042.46C1046.89 555.053 1050.48 558.651 1050.48 563.085V602.919C1050.48 607.352 1046.89 610.95 1042.46 610.95H982.722C976.304 610.95 972.485 618.13 976.063 623.462L1018.1 686.008ZM743.354 637.581C740.963 646.11 739.471 654.43 738.877 662.557C738.557 666.991 742.183 670.589 746.611 670.589H806.991C811.211 670.589 814.757 667.312 814.645 663.071C814.42 654.783 812.96 646.286 810.248 637.581C807.199 627.478 803.349 619.479 798.711 613.6C797.331 611.865 795.181 610.966 792.967 610.966H760.395C758.004 610.966 755.725 612.01 754.345 613.953C750.045 620.025 746.387 627.895 743.354 637.581Z" fill="#FFFFFF"/>
</svg>
